<svg width="101" height="100" viewBox="0 0 101 100" fill="none" xmlns="http://www.w3.org/2000/svg">
<path d="M32.228 68.6297C11.6503 48.0519 3.30954 23.0295 13.5984 12.7406C21.8936 4.44539 39.7655 8.25957 57.164 20.833M69.4873 31.3703C90.065 51.9481 98.4058 76.9705 88.1169 87.2593C79.8308 95.5455 61.9887 91.7487 44.6081 79.2079M88.1178 12.74C98.4066 23.0289 90.0658 48.0513 69.4881 68.6291C48.9104 89.2069 23.8881 97.5477 13.5992 87.2588C5.30409 78.9636 9.11817 61.0917 21.6914 43.6933C24.7134 39.5116 28.2414 35.3572 32.2289 31.3697C52.8066 10.7919 77.8289 2.45111 88.1178 12.74Z" stroke="#FFCB66" stroke-width="3" stroke-linecap="round"/>
<path d="M61.2747 49.9997C61.2747 55.7526 56.611 60.4163 50.8581 60.4163C45.1051 60.4163 40.4414 55.7526 40.4414 49.9997C40.4414 44.2467 45.1051 39.583 50.8581 39.583C56.611 39.583 61.2747 44.2467 61.2747 49.9997Z" stroke="#FFCB66" stroke-width="3"/>
</svg>
