<svg width="101" height="100" viewBox="0 0 101 100" fill="none" xmlns="http://www.w3.org/2000/svg">
<path d="M64.4767 75.9524C56.2291 87.111 52.1054 92.6903 48.2581 91.5113C44.4107 90.3322 44.4108 83.4892 44.411 69.8031L44.411 68.5132C44.4111 63.5769 44.4111 61.1088 42.8339 59.5606L42.7504 59.4804C41.1392 57.965 38.5703 57.965 33.4327 57.965C24.1874 57.965 19.5648 57.965 18.0025 55.1611C17.9766 55.1146 17.9514 55.0678 17.927 55.0207C16.4522 52.1734 19.1287 48.5521 24.4817 41.3095L37.2407 24.0469C45.488 12.8883 49.6117 7.30905 53.459 8.48806C57.3064 9.66708 57.3064 16.5101 57.3064 30.196V31.4864C57.3064 36.4227 57.3064 38.8908 58.8836 40.4389L58.9671 40.5191C60.5783 42.0345 63.1471 42.0345 68.2847 42.0345C77.53 42.0345 82.1527 42.0345 83.715 44.8385C83.7409 44.8849 83.766 44.9317 83.7904 44.9788C85.2652 47.8262 82.5887 51.4475 77.2356 58.69" stroke="#FFCB66" stroke-width="3" stroke-linecap="round"/>
</svg>
