<svg xmlns="http://www.w3.org/2000/svg" width="36" height="36" viewBox="0 0 36 36" fill="none">
<g opacity="0.8">
<rect width="36" height="36" rx="18" fill="white"/>
<path fill-rule="evenodd" clip-rule="evenodd" d="M19.9249 27.7124C19.8816 27.7127 19.8381 27.7129 19.7944 27.7129H10.3008V12.1567H14.5231V16.319H16.3341V19.5744H14.5231V24.3471H16.5942V22.0566H16.5967V15.4355H16.5942V12.1567H16.5953V11.8809H10.3008V8.40123V8.28809H26.2V11.8799H20.8408V12.1562H26.2V13.3211C26.2004 13.3505 26.2006 13.38 26.2006 13.4096C26.2006 14.4212 25.9837 15.3166 25.5116 16.0707C25.0844 16.7365 24.514 17.2667 23.8004 17.6614C23.9731 17.7221 24.1414 17.7896 24.3052 17.8639C25.1969 18.2502 25.8875 18.8295 26.3771 19.602C26.8841 20.3745 27.1376 21.3216 27.1376 22.4436C27.1376 24.0988 26.5169 25.3955 25.2756 26.3335C24.2208 27.1148 22.7432 27.5643 20.8428 27.6817V27.7124H19.9249ZM20.8428 24.2274C21.2962 24.1358 21.6723 23.9918 21.9712 23.7954C22.5481 23.4091 22.8366 22.8022 22.8366 21.9746C22.8366 21.1653 22.5481 20.5676 21.9712 20.1813C21.7323 20.0086 21.4441 19.8728 21.1065 19.7738V15.7667C21.6655 15.3805 21.9449 14.8013 21.9449 14.0292C21.9449 13.2751 21.6652 12.7142 21.1057 12.3463C21.0237 12.2879 20.936 12.2338 20.8428 12.1842V15.9216L20.844 15.921V19.7064L20.8428 19.7061V24.2274Z" fill="url(#paint0_linear_43_700)"/>
</g>
<defs>
<linearGradient id="paint0_linear_43_700" x1="11.0619" y1="11.0954" x2="29.0519" y2="13.5222" gradientUnits="userSpaceOnUse">
<stop stop-color="#2BBFFE"/>
<stop offset="0.521875" stop-color="#8629FD"/>
<stop offset="1" stop-color="#FC4AF5"/>
</linearGradient>
</defs>
</svg>