<svg width="50" height="50" viewBox="0 0 50 50" fill="none" xmlns="http://www.w3.org/2000/svg">
<path d="M4.16699 24.9997C4.16699 17.1429 4.16699 13.2146 6.60777 10.7738C9.04855 8.33301 12.9769 8.33301 20.8337 8.33301H29.167C37.0237 8.33301 40.9521 8.33301 43.3929 10.7738C45.8337 13.2146 45.8337 17.1429 45.8337 24.9997C45.8337 32.8564 45.8337 36.7848 43.3929 39.2256C40.9521 41.6663 37.0237 41.6663 29.167 41.6663H20.8337C12.9769 41.6663 9.04855 41.6663 6.60777 39.2256C4.16699 36.7848 4.16699 32.8564 4.16699 24.9997Z" stroke="#1C274C" stroke-width="1.5"/>
<path d="M12.5 16.667L16.9977 20.4151C20.824 23.6037 22.7372 25.198 25 25.198C27.2628 25.198 29.176 23.6037 33.0023 20.4151L37.5 16.667" stroke="#1C274C" stroke-width="1.5" stroke-linecap="round"/>
</svg>
