<svg width="24" height="24" viewBox="0 0 24 24" fill="none" xmlns="http://www.w3.org/2000/svg">
<path d="M14.1502 21.7568H2.7002V7.50683C2.7002 6.20681 3.5002 5.00682 4.7502 4.50682L11.0502 1.95682C12.2002 1.50682 13.5002 2.05682 13.9502 3.20682C14.0502 3.45682 14.1002 3.75682 14.1002 4.05682V21.7568H14.1502ZM4.2002 20.2568H12.6502V4.00681C12.6502 3.60682 12.3002 3.25681 11.9002 3.25681C11.8002 3.25681 11.7002 3.25682 11.6002 3.30682L5.2502 5.85684C4.6502 6.15683 4.2002 6.75683 4.2002 7.50683V20.2568Z" fill="white"/>
<path d="M21.6998 21.7569H13.4998V20.2569H20.1998V11.9068C20.1998 11.1069 19.6498 10.4068 18.8998 10.2069L13.2998 8.70686L13.6998 7.25684L19.2998 8.75684C20.6998 9.15686 21.6998 10.4068 21.6998 11.9068V21.7569Z" fill="white"/>
<path d="M22.4502 21.7568H1.9502C1.5502 21.7568 1.2002 21.4068 1.2002 21.0068C1.2002 20.5568 1.5502 20.2568 1.9502 20.2568H22.4502C22.8502 20.2568 23.2002 20.6068 23.2002 21.0068C23.2002 21.4068 22.8502 21.7568 22.4502 21.7568ZM9.70022 9.20679H7.2002C6.80018 9.20679 6.4502 8.85681 6.4502 8.45679C6.4502 8.05677 6.80018 7.70679 7.2002 7.70679H9.70022C10.1002 7.70679 10.4502 8.05677 10.4502 8.45679C10.4502 8.85681 10.1002 9.20679 9.70022 9.20679ZM9.70022 13.0068H7.2002C6.80018 13.0068 6.4502 12.6568 6.4502 12.2568C6.4502 11.8568 6.80018 11.5068 7.2002 11.5068H9.70022C10.1002 11.5068 10.4502 11.8568 10.4502 12.2568C10.4502 12.6568 10.1002 13.0068 9.70022 13.0068ZM9.70022 16.8068H7.2002C6.80018 16.8068 6.4502 16.4568 6.4502 16.0568C6.4502 15.6568 6.80018 15.3068 7.2002 15.3068H9.70022C10.1002 15.3068 10.4502 15.6568 10.4502 16.0568C10.4502 16.4568 10.1002 16.8068 9.70022 16.8068ZM18.0002 16.8068H16.5002C16.1002 16.8068 15.7502 16.4568 15.7502 16.0568C15.7502 15.6568 16.1002 15.3068 16.5002 15.3068H18.0002C18.4002 15.3068 18.7502 15.6568 18.7502 16.0568C18.7502 16.4568 18.4002 16.8068 18.0002 16.8068Z" fill="white"/>
</svg>
