<svg xmlns="http://www.w3.org/2000/svg" width="165" height="60" viewBox="0 0 165 60" fill="none">
<path fill-rule="evenodd" clip-rule="evenodd" d="M40.7894 29.8123C42.8061 32.5 46.2586 34.0463 50.2704 34.0463C54.4221 34.0463 57.9391 32.4693 59.9235 29.7264C60.7764 28.547 61.3826 27.0988 61.7365 25.3969C65.3419 23.8919 69.6391 21.8311 69.9403 17.2785C70.343 11.1928 65.5838 11.0295 62.1069 11.293V7.48242H38.5361V21.5958C38.5361 25.1058 39.2729 27.7935 40.7894 29.8123ZM62.1069 14.3377V21.4792C62.1069 21.6405 62.1053 21.8003 62.1022 21.9585C64.9118 20.6649 66.9338 19.2239 66.9803 16.716C67.0275 14.1657 65.6351 14.2146 62.727 14.3168C62.5274 14.3238 62.3207 14.331 62.1069 14.3377ZM42.2253 21.5958V11.6919H58.4178V21.4731C58.4178 23.9706 57.966 25.8115 57.0787 27.0387C55.8149 28.7875 53.1744 29.8307 50.2651 29.8307C47.3557 29.8307 44.9034 28.8244 43.5912 27.0694C43.0051 26.2839 42.2253 24.8665 42.2253 21.5958Z" fill="#FFCB66"/>
<path d="M0 17.0967C0 13.8402 0.734311 10.9189 2.20293 8.33283C3.67156 5.71486 5.66697 3.67156 8.18917 2.20293C10.7433 0.734311 13.5688 0 16.6657 0C20.3053 0 23.482 0.877981 26.1957 2.63394C28.9095 4.3899 30.889 6.88018 32.1341 10.1048H26.9141C25.9882 8.09338 24.6473 6.54495 22.8913 5.45944C21.1673 4.37394 19.0921 3.83119 16.6657 3.83119C14.335 3.83119 12.2438 4.37394 10.3921 5.45944C8.54036 6.54495 7.0877 8.09338 6.03412 10.1048C4.98054 12.0842 4.45376 14.4148 4.45376 17.0967C4.45376 19.7466 4.98054 22.0772 6.03412 24.0886C7.0877 26.068 8.54036 27.6005 10.3921 28.686C12.2438 29.7715 14.335 30.3143 16.6657 30.3143C19.0921 30.3143 21.1673 29.7875 22.8913 28.7339C24.6473 27.6484 25.9882 26.1 26.9141 24.0886H32.1341C30.889 27.2812 28.9095 29.7556 26.1957 31.5115C23.482 33.2356 20.3053 34.0976 16.6657 34.0976C13.5688 34.0976 10.7433 33.3792 8.18917 31.9425C5.66697 30.4739 3.67156 28.4466 2.20293 25.8605C0.734311 23.2745 0 20.3532 0 17.0967Z" fill="white"/>
<path d="M79.1672 11.5998C80.0292 10.0993 81.3062 8.85413 82.9983 7.86441C84.7224 6.84276 86.7178 6.33193 88.9846 6.33193C91.3152 6.33193 93.4224 6.89065 95.306 8.00808C97.2216 9.12551 98.7222 10.7059 99.8077 12.7492C100.893 14.7605 101.436 17.1071 101.436 19.789C101.436 22.4389 100.893 24.8015 99.8077 26.8767C98.7222 28.9519 97.2216 30.5642 95.306 31.7136C93.4224 32.8629 91.3152 33.4376 88.9846 33.4376C86.7497 33.4376 84.7703 32.9427 83.0462 31.953C81.3541 30.9314 80.0611 29.6703 79.1672 28.1697V45.4579H74.8092V6.76294H79.1672V11.5998ZM96.9822 19.789C96.9822 17.8095 96.5831 16.0855 95.7849 14.6169C94.9868 13.1483 93.9013 12.0308 92.5284 11.2646C91.1875 10.4983 89.7029 10.1152 88.0747 10.1152C86.4783 10.1152 84.9938 10.5143 83.6209 11.3125C82.28 12.0787 81.1945 13.2121 80.3644 14.7127C79.5662 16.1813 79.1672 17.8893 79.1672 19.8369C79.1672 21.8163 79.5662 23.5563 80.3644 25.0569C81.1945 26.5255 82.28 27.6589 83.6209 28.457C84.9938 29.2233 86.4783 29.6064 88.0747 29.6064C89.7029 29.6064 91.1875 29.2233 92.5284 28.457C93.9013 27.6589 94.9868 26.5255 95.7849 25.0569C96.5831 23.5563 96.9822 21.8004 96.9822 19.789Z" fill="white"/>
<path d="M111.53 11.5998C112.392 10.0993 113.669 8.85413 115.361 7.86441C117.085 6.84276 119.081 6.33193 121.348 6.33193C123.678 6.33193 125.785 6.89065 127.669 8.00808C129.585 9.12551 131.085 10.7059 132.171 12.7492C133.256 14.7605 133.799 17.1071 133.799 19.789C133.799 22.4389 133.256 24.8015 132.171 26.8767C131.085 28.9519 129.585 30.5642 127.669 31.7136C125.785 32.8629 123.678 33.4376 121.348 33.4376C119.113 33.4376 117.133 32.9427 115.409 31.953C113.717 30.9314 112.424 29.6703 111.53 28.1697V45.4579H107.172V6.76294H111.53V11.5998ZM129.345 19.789C129.345 17.8095 128.946 16.0855 128.148 14.6169C127.35 13.1483 126.264 12.0308 124.891 11.2646C123.551 10.4983 122.066 10.1152 120.438 10.1152C118.841 10.1152 117.357 10.5143 115.984 11.3125C114.643 12.0787 113.558 13.2121 112.727 14.7127C111.929 16.1813 111.53 17.8893 111.53 19.8369C111.53 21.8163 111.929 23.5563 112.727 25.0569C113.558 26.5255 114.643 27.6589 115.984 28.457C117.357 29.2233 118.841 29.6064 120.438 29.6064C122.066 29.6064 123.551 29.2233 124.891 28.457C126.264 27.6589 127.35 26.5255 128.148 25.0569C128.946 23.5563 129.345 21.8004 129.345 19.789Z" fill="white"/>
<path d="M137.907 19.789C137.907 17.1071 138.45 14.7605 139.535 12.7492C140.621 10.7059 142.105 9.12551 143.989 8.00808C145.905 6.89065 148.028 6.33193 150.358 6.33193C152.657 6.33193 154.653 6.82679 156.345 7.81652C158.037 8.80624 159.298 10.0514 160.128 11.5519V6.76294H164.534V33.0066H160.128V28.1218C159.266 29.6543 157.973 30.9314 156.249 31.953C154.557 32.9427 152.577 33.4376 150.311 33.4376C147.98 33.4376 145.873 32.8629 143.989 31.7136C142.105 30.5642 140.621 28.9519 139.535 26.8767C138.45 24.8015 137.907 22.4389 137.907 19.789ZM160.128 19.8369C160.128 17.8574 159.729 16.1334 158.931 14.6648C158.133 13.1961 157.047 12.0787 155.674 11.3125C154.333 10.5143 152.849 10.1152 151.22 10.1152C149.592 10.1152 148.108 10.4983 146.767 11.2646C145.426 12.0308 144.356 13.1483 143.558 14.6169C142.76 16.0855 142.361 17.8095 142.361 19.789C142.361 21.8004 142.76 23.5563 143.558 25.0569C144.356 26.5255 145.426 27.6589 146.767 28.457C148.108 29.2233 149.592 29.6064 151.22 29.6064C152.849 29.6064 154.333 29.2233 155.674 28.457C157.047 27.6589 158.133 26.5255 158.931 25.0569C159.729 23.5563 160.128 21.8163 160.128 19.8369Z" fill="white"/>
<path d="M7.48242 56.7823H52.3792V57.2313H7.48242V56.7823Z" fill="white"/>
<path d="M60.9534 59.3189H63.0774V59.941H60.1613V54.0809H60.9534V59.3189Z" fill="white"/>
<path d="M67.5051 58.6379H64.8588L64.3713 59.941H63.5356L65.7293 54.1146H66.6433L68.8282 59.941H67.9925L67.5051 58.6379ZM67.2787 58.0157L66.1819 55.0562L65.0851 58.0157H67.2787Z" fill="white"/>
<path d="M74.5545 59.941H73.7624L70.5764 55.2748V59.941H69.7843V54.0725H70.5764L73.7624 58.7304V54.0725H74.5545V59.941Z" fill="white"/>
<path d="M80.5011 55.7793C80.3328 55.4374 80.0891 55.1739 79.7699 54.989C79.4507 54.7984 79.0793 54.7031 78.6556 54.7031C78.232 54.7031 77.849 54.7984 77.5066 54.989C77.17 55.1739 76.9031 55.443 76.7057 55.7961C76.5142 56.1436 76.4185 56.5472 76.4185 57.0068C76.4185 57.4664 76.5142 57.87 76.7057 58.2175C76.9031 58.565 77.17 58.834 77.5066 59.0246C77.849 59.2096 78.232 59.3021 78.6556 59.3021C79.2476 59.3021 79.7351 59.1311 80.1181 58.7892C80.5011 58.4473 80.7245 57.9849 80.7883 57.4019H78.3684V56.7798H81.6327V57.3683C81.5863 57.8504 81.4296 58.2932 81.1627 58.6967C80.8957 59.0947 80.5446 59.4114 80.1094 59.6468C79.6741 59.8766 79.1895 59.9915 78.6556 59.9915C78.0927 59.9915 77.5791 59.8654 77.1149 59.6132C76.6506 59.3553 76.2821 58.9994 76.0094 58.5454C75.7424 58.0914 75.6089 57.5785 75.6089 57.0068C75.6089 56.4351 75.7424 55.9222 76.0094 55.4682C76.2821 55.0086 76.6506 54.6527 77.1149 54.4004C77.5791 54.1426 78.0927 54.0137 78.6556 54.0137C79.2998 54.0137 79.8685 54.1678 80.3618 54.4761C80.8609 54.7844 81.2236 55.2188 81.4499 55.7793H80.5011Z" fill="white"/>
<path d="M83.4548 54.0809V57.7887C83.4548 58.31 83.5854 58.6967 83.8465 58.9489C84.1135 59.2012 84.482 59.3273 84.9521 59.3273C85.4163 59.3273 85.779 59.2012 86.0402 58.9489C86.3071 58.6967 86.4406 58.31 86.4406 57.7887V54.0809H87.2328V57.7803C87.2328 58.2679 87.1312 58.6799 86.9281 59.0162C86.725 59.3469 86.4493 59.5935 86.1011 59.7561C85.7587 59.9186 85.3728 59.9999 84.9434 59.9999C84.5139 59.9999 84.1251 59.9186 83.7769 59.7561C83.4345 59.5935 83.1618 59.3469 82.9587 59.0162C82.7613 58.6799 82.6627 58.2679 82.6627 57.7803V54.0809H83.4548Z" fill="white"/>
<path d="M92.1406 58.6379H89.4943L89.0069 59.941H88.1712L90.3648 54.1146H91.2788L93.4638 59.941H92.6281L92.1406 58.6379ZM91.9143 58.0157L90.8175 55.0562L89.7207 58.0157H91.9143Z" fill="white"/>
<path d="M99.016 55.7793C98.8477 55.4374 98.604 55.1739 98.2848 54.989C97.9656 54.7984 97.5942 54.7031 97.1706 54.7031C96.7469 54.7031 96.3639 54.7984 96.0215 54.989C95.6849 55.1739 95.418 55.443 95.2207 55.7961C95.0292 56.1436 94.9334 56.5472 94.9334 57.0068C94.9334 57.4664 95.0292 57.87 95.2207 58.2175C95.418 58.565 95.6849 58.834 96.0215 59.0246C96.3639 59.2096 96.7469 59.3021 97.1706 59.3021C97.7625 59.3021 98.25 59.1311 98.633 58.7892C99.016 58.4473 99.2394 57.9849 99.3033 57.4019H96.8833V56.7798H100.148V57.3683C100.101 57.8504 99.9445 58.2932 99.6776 58.6967C99.4106 59.0947 99.0595 59.4114 98.6243 59.6468C98.189 59.8766 97.7045 59.9915 97.1706 59.9915C96.6077 59.9915 96.0941 59.8654 95.6298 59.6132C95.1655 59.3553 94.797 58.9994 94.5243 58.5454C94.2573 58.0914 94.1239 57.5785 94.1239 57.0068C94.1239 56.4351 94.2573 55.9222 94.5243 55.4682C94.797 55.0086 95.1655 54.6527 95.6298 54.4004C96.0941 54.1426 96.6077 54.0137 97.1706 54.0137C97.8147 54.0137 98.3835 54.1678 98.8767 54.4761C99.3758 54.7844 99.7385 55.2188 99.9648 55.7793H99.016Z" fill="white"/>
<path d="M101.987 54.7031V56.6621H104.198V57.2926H101.987V59.3105H104.459V59.941H101.195V54.0725H104.459V54.7031H101.987Z" fill="white"/>
<path d="M112.241 56.7823H157.138V57.2313H112.241V56.7823Z" fill="white"/>
</svg>