<svg xmlns="http://www.w3.org/2000/svg" width="24" height="25" viewBox="0 0 24 25" fill="none">
<path d="M2 12.5316C2 8.82283 2 6.96842 3.17157 5.81624C4.34315 4.66406 6.22876 4.66406 10 4.66406H14C17.7712 4.66406 19.6569 4.66406 20.8284 5.81624C22 6.96842 22 8.82283 22 12.5316C22 16.2404 22 18.0949 20.8284 19.247C19.6569 20.3992 17.7712 20.3992 14 20.3992H10C6.22876 20.3992 4.34315 20.3992 3.17157 19.247C2 18.0949 2 16.2404 2 12.5316Z" stroke="white" stroke-width="1.5"/>
<path d="M6 8.59766L8.1589 10.367C9.99553 11.8722 10.9139 12.6248 12 12.6248C13.0861 12.6248 14.0045 11.8722 15.8411 10.367L18 8.59766" stroke="white" stroke-width="1.5" stroke-linecap="round"/>
</svg>