<svg width="101" height="100" viewBox="0 0 101 100" fill="none" xmlns="http://www.w3.org/2000/svg">
<path d="M30.0247 13.9218C36.1534 10.3674 43.2688 8.33301 50.8581 8.33301C73.8699 8.33301 92.5247 27.0365 92.5247 50.1085C92.5247 84.0747 58.5187 60.0797 51.9492 70.5281C50.3058 73.142 52.0823 76.4012 54.2615 78.5861C56.9842 81.3159 56.9842 85.7418 54.2615 88.4716C52.0823 90.6565 49.1147 91.9616 46.053 91.6092C25.3044 89.2205 9.19141 71.5511 9.19141 50.1085C9.19141 42.4769 11.2325 35.3232 14.7971 29.1663" stroke="#FFCB66" stroke-width="3" stroke-linecap="round"/>
<circle cx="73.7754" cy="47.917" r="6.25" stroke="#FFCB66" stroke-width="3"/>
<circle cx="27.9414" cy="47.917" r="6.25" stroke="#FFCB66" stroke-width="3"/>
<path d="M47.0459 29.166C47.0459 32.6178 44.2477 35.416 40.7959 35.416C37.3441 35.416 34.5459 32.6178 34.5459 29.166C34.5459 25.7142 37.3441 22.916 40.7959 22.916C44.2477 22.916 47.0459 25.7142 47.0459 29.166Z" stroke="#FFCB66" stroke-width="3"/>
<path d="M67.5254 29.167C67.5254 32.6188 64.7272 35.417 61.2754 35.417C57.8236 35.417 55.0254 32.6188 55.0254 29.167C55.0254 25.7152 57.8236 22.917 61.2754 22.917C64.7272 22.917 67.5254 25.7152 67.5254 29.167Z" stroke="#FFCB66" stroke-width="3"/>
</svg>
